<?xml version="1.0" standalone="no"?>
<!DOCTYPE svg PUBLIC "-//W3C//DTD SVG 20010904//EN"
 "http://www.w3.org/TR/2001/REC-SVG-20010904/DTD/svg10.dtd">
<svg version="1.0" xmlns="http://www.w3.org/2000/svg"
 width="512.000000pt" height="512.000000pt" viewBox="0 0 512.000000 512.000000"
 preserveAspectRatio="xMidYMid meet">

<g transform="translate(0.000000,512.000000) scale(0.100000,-0.100000)"
fill="#EC5054" stroke="none">
<path d="M2395 5114 c-281 -28 -424 -57 -643 -129 -881 -291 -1543 -1053
-1707 -1965 -59 -326 -59 -594 0 -920 123 -687 527 -1294 1120 -1682 1018
-667 2368 -519 3221 354 133 136 211 233 316 393 310 472 457 1052 408 1605
-54 597 -299 1138 -710 1564 -406 420 -948 692 -1530 766 -90 11 -408 21 -475
14z m-55 -1799 c49 -25 125 -96 164 -154 13 -20 90 -150 169 -289 l145 -254 5
254 c4 286 8 305 74 378 83 93 208 119 317 66 90 -44 144 -115 321 -420 l160
-276 3 360 2 360 223 -2 222 -3 3 -635 c3 -686 0 -724 -51 -815 -53 -94 -180
-143 -289 -111 -73 21 -142 69 -188 130 -21 28 -108 167 -193 309 l-155 259
-4 -244 c-4 -262 -9 -290 -65 -370 -61 -89 -214 -119 -325 -65 -88 43 -140
109 -318 406 l-165 274 -5 -239 c-5 -222 -7 -243 -28 -289 -28 -60 -63 -100
-117 -128 -38 -21 -54 -22 -362 -25 -313 -3 -324 -2 -434 22 -170 39 -282 97
-384 200 -249 251 -295 643 -113 966 88 156 226 259 425 315 115 32 196 42
370 44 l143 2 0 -100 0 -101 -165 0 c-274 0 -409 -42 -523 -164 -98 -106 -142
-198 -164 -351 -37 -257 130 -531 370 -605 105 -33 209 -41 475 -38 l247 3 32
33 33 32 5 513 c5 510 5 512 26 515 11 2 26 -3 33 -11 6 -8 153 -244 327 -523
173 -280 328 -521 344 -536 39 -36 79 -36 111 -2 l24 26 3 513 c2 429 5 515
17 525 25 21 49 2 95 -72 99 -164 573 -926 599 -963 48 -70 119 -73 153 -5 17
32 18 85 18 668 l0 632 -30 0 -30 0 0 -644 c0 -585 -1 -644 -16 -650 -9 -4
-23 -1 -30 5 -12 10 -290 452 -583 926 -45 73 -92 139 -104 148 -34 24 -75 19
-108 -14 l-29 -29 0 -504 c0 -528 -2 -551 -43 -535 -14 5 -194 288 -521 822
-81 132 -157 248 -168 258 -31 26 -90 22 -119 -9 l-24 -26 -3 -506 c-2 -348
-6 -510 -13 -519 -9 -10 -74 -13 -303 -13 -264 0 -298 2 -366 21 -105 29 -163
63 -230 136 -97 107 -140 219 -140 371 0 197 105 379 263 457 98 48 197 65
383 65 l154 0 0 -100 0 -100 -163 0 c-177 0 -237 -12 -311 -62 -78 -53 -130
-158 -130 -263 -1 -155 71 -257 219 -310 62 -22 379 -34 413 -16 21 11 21 16
24 439 4 477 6 491 74 570 82 97 213 124 324 67z"/>
</g>
</svg>
