<svg xmlns="http://www.w3.org/2000/svg" xmlns:xlink="http://www.w3.org/1999/xlink" width="500" zoomAndPan="magnify" viewBox="0 0 375 374.999991" height="500" preserveAspectRatio="xMidYMid meet" version="1.0"><defs><clipPath id="607a670895"><path d="M 101 37.5 L 280.3125 37.5 L 280.3125 250 L 101 250 Z M 101 37.5 " clip-rule="nonzero"/></clipPath></defs><g clip-path="url(#607a670895)"><path fill="#ea5456" d="M 280.226562 74.046875 C 280.226562 53.863281 263.894531 37.5 243.75 37.5 C 223.605469 37.5 207.273438 53.863281 207.273438 74.046875 C 207.273438 74.660156 207.289062 75.261719 207.320312 75.867188 C 201.566406 74.679688 195.597656 74.046875 189.488281 74.046875 C 141.015625 74.046875 101.726562 113.414062 101.726562 161.976562 C 101.726562 210.539062 141.015625 249.902344 189.484375 249.902344 C 237.953125 249.902344 277.238281 210.539062 277.238281 161.976562 C 277.238281 141.414062 270.1875 122.496094 258.382812 107.519531 C 271.246094 101.867188 280.226562 89.011719 280.226562 74.046875 Z M 189.484375 201.921875 C 167.460938 201.921875 149.613281 184.039062 149.613281 161.976562 C 149.613281 139.910156 167.460938 122.027344 189.484375 122.027344 C 211.503906 122.027344 229.355469 139.910156 229.355469 161.976562 C 229.355469 184.039062 211.503906 201.921875 189.484375 201.921875 Z M 189.484375 201.921875 " fill-opacity="1" fill-rule="nonzero"/></g><path fill="#ea5456" d="M 173.714844 285.113281 C 173.992188 286.277344 174.207031 287.453125 174.367188 288.636719 C 174.527344 289.824219 174.628906 291.015625 174.667969 292.210938 C 174.710938 293.410156 174.695312 294.605469 174.621094 295.796875 C 174.546875 296.992188 174.414062 298.179688 174.222656 299.363281 C 174.03125 300.542969 173.78125 301.714844 173.476562 302.871094 C 173.171875 304.027344 172.808594 305.167969 172.390625 306.289062 C 171.972656 307.410156 171.5 308.507812 170.976562 309.582031 C 170.449219 310.65625 169.875 311.703125 169.246094 312.722656 C 168.617188 313.742188 167.941406 314.726562 167.21875 315.679688 C 166.492188 316.628906 165.722656 317.542969 164.910156 318.417969 C 164.09375 319.296875 163.238281 320.128906 162.34375 320.921875 C 161.449219 321.710938 160.515625 322.457031 159.546875 323.160156 C 158.578125 323.859375 157.574219 324.507812 156.542969 325.109375 C 155.511719 325.710938 154.449219 326.261719 153.363281 326.757812 C 152.277344 327.253906 151.167969 327.699219 150.039062 328.085938 C 148.90625 328.472656 147.761719 328.804688 146.597656 329.082031 C 145.4375 329.355469 144.261719 329.574219 143.078125 329.730469 C 141.894531 329.890625 140.707031 329.992188 139.511719 330.035156 C 138.316406 330.078125 137.125 330.0625 135.933594 329.988281 C 134.738281 329.910156 133.554688 329.777344 132.375 329.585938 C 131.195312 329.394531 130.027344 329.144531 128.875 328.839844 C 127.71875 328.53125 126.582031 328.171875 125.464844 327.75 C 124.34375 327.332031 123.246094 326.859375 122.175781 326.335938 C 121.101562 325.808594 120.058594 325.230469 119.039062 324.601562 C 118.023438 323.972656 117.042969 323.292969 116.089844 322.566406 C 115.140625 321.84375 114.230469 321.070312 113.355469 320.253906 C 112.480469 319.441406 111.648438 318.582031 110.859375 317.683594 C 110.070312 316.789062 109.324219 315.851562 108.625 314.882812 C 107.925781 313.910156 107.277344 312.910156 106.675781 311.875 C 106.078125 310.839844 105.527344 309.777344 105.03125 308.6875 C 104.535156 307.597656 104.09375 306.488281 103.707031 305.355469 C 103.320312 304.222656 102.988281 303.074219 102.714844 301.910156 C 102.441406 300.746094 102.222656 299.570312 102.066406 298.382812 C 101.90625 297.195312 101.804688 296.003906 101.761719 294.808594 C 101.71875 293.613281 101.734375 292.417969 101.8125 291.222656 C 101.886719 290.027344 102.019531 288.839844 102.210938 287.660156 C 102.402344 286.476562 102.648438 285.308594 102.957031 284.152344 C 103.261719 282.992188 103.625 281.855469 104.042969 280.734375 C 104.457031 279.609375 104.929688 278.511719 105.457031 277.4375 C 105.980469 276.363281 106.558594 275.316406 107.1875 274.296875 C 107.8125 273.28125 108.488281 272.292969 109.214844 271.34375 C 109.9375 270.390625 110.707031 269.476562 111.523438 268.601562 C 112.335938 267.726562 113.191406 266.890625 114.089844 266.101562 C 114.984375 265.308594 115.917969 264.5625 116.886719 263.863281 C 117.855469 263.164062 118.855469 262.511719 119.890625 261.910156 C 120.921875 261.308594 121.980469 260.761719 123.066406 260.261719 C 124.15625 259.765625 125.261719 259.324219 126.394531 258.933594 C 127.523438 258.546875 128.671875 258.214844 129.832031 257.941406 C 130.996094 257.664062 132.167969 257.449219 133.351562 257.289062 C 134.535156 257.128906 135.726562 257.027344 136.917969 256.984375 C 138.113281 256.941406 139.308594 256.960938 140.5 257.035156 C 141.691406 257.109375 142.878906 257.242188 144.054688 257.433594 C 145.234375 257.625 146.402344 257.875 147.558594 258.179688 C 148.710938 258.488281 149.847656 258.851562 150.96875 259.269531 C 152.089844 259.6875 153.183594 260.160156 154.257812 260.6875 C 155.328125 261.210938 156.375 261.789062 157.390625 262.417969 C 158.40625 263.050781 159.390625 263.726562 160.339844 264.453125 C 161.289062 265.179688 162.203125 265.949219 163.074219 266.765625 C 163.949219 267.582031 164.78125 268.4375 165.574219 269.335938 C 166.363281 270.234375 167.105469 271.167969 167.804688 272.140625 C 168.503906 273.109375 169.152344 274.113281 169.753906 275.148438 C 170.355469 276.183594 170.902344 277.246094 171.398438 278.332031 C 171.894531 279.421875 172.335938 280.53125 172.722656 281.664062 C 173.109375 282.796875 173.441406 283.945312 173.714844 285.113281 Z M 173.714844 285.113281 " fill-opacity="1" fill-rule="nonzero"/></svg>